<svg version="1.2" xmlns="http://www.w3.org/2000/svg" viewBox="0 0 3300 500" width="3300" height="500">
	<style>
		.s0 { fill: #000000 } 
		.s1 { fill: #ffffff } 
	</style>
	<g id="Five Fifteen">
		<path id="Path 0" class="s0" d="m0 250v250h3300v-500h-3300z"/>
		<path id="Path 1" class="s1" d="m1112 250v225h2163v-450h-2163zm-1064 0v168h35v-142h174v-31h-174v-132h195v-31h-230zm304 0v168h35v-336h-35zm88.7-167.5c-0.4 0.3 0.8 4 2.7 8.3 1.8 4.2 12.5 28.4 23.6 53.7 11.1 25.3 28.4 64.4 38.5 87 10 22.6 26 58.6 35.5 80 9.5 21.4 23.2 52.5 30.5 69 7.3 16.5 14.1 31.7 15.1 33.8l1.9 3.8 34.9-0.6c114.4-258.1 147.6-333.6 147.6-334.3 0-0.9-4-1.2-16.7-1.2-9.3 0-17.3 0.4-17.8 0.8-0.6 0.4-2.6 4.1-4.4 8.2-1.9 4.1-8.5 19-14.8 33-6.3 14-18 40.1-26 58-8 17.9-18.2 41.1-22.8 51.5-4.6 10.4-17.1 38.4-27.8 62-10.7 23.6-22.7 50.3-26.8 59.2-4.1 9-7.7 16.3-8.1 16.3-0.5 0-1.7-2.1-2.9-4.7-1.1-2.7-6.7-15.4-12.4-28.3-5.7-12.9-19-43.1-29.5-67-10.6-23.9-27.8-62.8-38.2-86.5-10.5-23.6-22.3-50.4-26.2-59.5-4-9.1-9.9-22.5-13.2-29.8l-5.9-13.3c-28 0.1-36.5 0.3-36.8 0.6zm380.3 167.5v168h237v-31h-202v-124l173.5-0.5 0.5-30.5h-174v-119h195v-31h-230z"/>
		<path id="Path 2" class="s0" d="m1183 250v168h78v-122h155v-63h-155v-88l175.5-0.5 0.2-62.5h-253.7zm307 0v168h77v-336h-77zm157 0v168h78v-122h155v-63h-155v-88l175.5-0.5 0.2-62.5h-253.7zm271-136.5v31.5h108v273h77l0.5-272.5 107.5-0.5v-63h-293zm335 136.5v168h260l-0.5-62.5-182.5-0.5v-77h156v-61h-156v-72l176.5-0.5 0.2-62.5h-253.7zm322 0v168h260v-63h-183v-77h156v-61h-156v-72l176.5-0.5 0.2-62.5h-253.7zm322 0v168h77c0-155.8 0.3-201.2 0.7-201.4 0.5-0.2 38.1 45 83.8 100.5l83 100.9h63.5v-336h-77c0 155.8-0.3 201.2-0.8 201.4-0.4 0.2-37.8-45-83.2-100.5l-82.5-100.9h-64.5z"/>
	</g>
</svg>